<?xml version="1.0" encoding="utf-8"?>
<!-- Generator: Adobe Illustrator 21.1.0, SVG Export Plug-In . SVG Version: 6.00 Build 0)  -->
<svg version="1.1" id="Layer_1" xmlns="http://www.w3.org/2000/svg" xmlns:xlink="http://www.w3.org/1999/xlink" x="0px" y="0px"
	 viewBox="0 0 400 400" style="enable-background:new 0 0 400 400;" xml:space="preserve">
<style type="text/css">
	.st0{fill:none;stroke:#000000;stroke-width:15;stroke-miterlimit:10;}
	.st1{fill:none;stroke:#000000;stroke-width:10;stroke-miterlimit:10;}
</style>
<path class="st0" d="M309.5,121.8c0-27.6-22.4-50-50-50s-50,22.4-50,50c0-27.6-22.4-50-50-50s-50,22.4-50,50"/>
<path class="st0" d="M59.5,171.8c-27.6,0-50,22.4-50,50s22.4,50,50,50c-27.6,0-50,22.4-50,50s22.4,50,50,50"/>
<line class="st0" x1="321" y1="371.8" x2="334.5" y2="371.8"/>
<line class="st0" x1="122.3" y1="371.8" x2="296.5" y2="371.8"/>
<path class="st0" d="M122.3,371.8"/>
<path class="st0" d="M96.5,371.8"/>
<line class="st0" x1="59.5" y1="371.8" x2="96.5" y2="371.8"/>
<line class="st0" x1="320.7" y1="171.8" x2="334.5" y2="171.8"/>
<line class="st0" x1="122" y1="171.8" x2="296.5" y2="171.8"/>
<path class="st0" d="M122,171.8"/>
<path class="st0" d="M96.5,171.8"/>
<line class="st0" x1="59.5" y1="171.8" x2="96.5" y2="171.8"/>
<line class="st0" x1="221.5" y1="271.8" x2="334.5" y2="271.8"/>
<line class="st0" x1="59.5" y1="271.8" x2="197.5" y2="271.8"/>
<line class="st0" x1="109.5" y1="285.3" x2="109.5" y2="396.8"/>
<path class="st0" d="M109.5,285.3"/>
<path class="st0" d="M109.5,260.8"/>
<line class="st0" x1="109.5" y1="121.8" x2="109.5" y2="260.8"/>
<line class="st0" x1="209.5" y1="385.5" x2="209.5" y2="396.8"/>
<line class="st0" x1="209.5" y1="183.8" x2="209.5" y2="359.9"/>
<line class="st0" x1="209.5" y1="121.8" x2="209.5" y2="159.5"/>
<line class="st0" x1="309.5" y1="284.7" x2="309.5" y2="396.8"/>
<line class="st0" x1="309.5" y1="121.8" x2="309.5" y2="259.9"/>
<path class="st1" d="M331.3,121.8c0-41-33.2-74.3-74.3-74.3"/>
<path class="st1" d="M351.3,121.8c0-52.1-42.2-94.3-94.3-94.3"/>
<path class="st1" d="M370.8,121.8C370.8,58.9,319.9,8,257,8"/>
</svg>
